<svg width="43" height="43" viewBox="0 0 43 43" fill="none" xmlns="http://www.w3.org/2000/svg">
<g id="fe:cart">
<g id="feCart0">
<g id="feCart1">
<path id="feCart2" fill-rule="evenodd" clip-rule="evenodd" d="M14.3332 28.6663H28.6665C29.1417 28.6663 29.5974 28.8551 29.9334 29.1911C30.2694 29.5271 30.4582 29.9828 30.4582 30.458C30.4582 30.9332 30.2694 31.3889 29.9334 31.7249C29.5974 32.0609 29.1417 32.2497 28.6665 32.2497H12.5415C12.0663 32.2497 11.6106 32.0609 11.2746 31.7249C10.9386 31.3889 10.7498 30.9332 10.7498 30.458V7.16634H8.95817C8.48299 7.16634 8.02727 6.97758 7.69127 6.64157C7.35527 6.30557 7.1665 5.84985 7.1665 5.37467C7.1665 4.89949 7.35527 4.44378 7.69127 4.10777C8.02727 3.77177 8.48299 3.58301 8.95817 3.58301H12.5415C13.0167 3.58301 13.4724 3.77177 13.8084 4.10777C14.1444 4.44378 14.3332 4.89949 14.3332 5.37467V8.9598L14.464 8.95801H32.119C34.1705 8.95801 35.8332 10.5615 35.8332 12.5413C35.8332 12.8029 35.8027 13.0627 35.7436 13.3189L33.6814 22.2773C33.3051 23.9166 31.7965 25.083 30.055 25.083H14.464L14.3332 25.0812V28.6663ZM13.4373 39.4163C12.7246 39.4163 12.041 39.1332 11.537 38.6292C11.033 38.1252 10.7498 37.4416 10.7498 36.7288C10.7498 36.0161 11.033 35.3325 11.537 34.8285C12.041 34.3245 12.7246 34.0413 13.4373 34.0413C14.1501 34.0413 14.8337 34.3245 15.3377 34.8285C15.8417 35.3325 16.1248 36.0161 16.1248 36.7288C16.1248 37.4416 15.8417 38.1252 15.3377 38.6292C14.8337 39.1332 14.1501 39.4163 13.4373 39.4163ZM29.5623 39.4163C28.8496 39.4163 28.166 39.1332 27.662 38.6292C27.158 38.1252 26.8748 37.4416 26.8748 36.7288C26.8748 36.0161 27.158 35.3325 27.662 34.8285C28.166 34.3245 28.8496 34.0413 29.5623 34.0413C30.2751 34.0413 30.9587 34.3245 31.4627 34.8285C31.9667 35.3325 32.2498 36.0161 32.2498 36.7288C32.2498 37.4416 31.9667 38.1252 31.4627 38.6292C30.9587 39.1332 30.2751 39.4163 29.5623 39.4163ZM14.3332 12.5413V21.4997H30.1554L32.2498 12.5413H14.3332Z" fill="black"/>
</g>
</g>
</g>
</svg>
