<svg width="160" height="38" viewBox="0 0 160 38" fill="none" xmlns="http://www.w3.org/2000/svg">
<path d="M33.6 0.471998C35.104 0.471998 36.288 0.919998 37.152 1.816C38.048 2.68 38.496 3.784 38.496 5.128C38.496 7.56 37.632 9.544 35.904 11.08C34.176 12.616 31.888 14.056 29.04 15.4C26.736 21.352 23.984 28.552 20.784 37H12.816C11.728 21.768 11.072 12.92 10.848 10.456C10.656 7.96 10.432 6.488 10.176 6.04C9.952 5.592 9.504 5.368 8.832 5.368C7.136 5.368 5.392 8.36 3.6 14.344C2.064 13.608 0.992 13.064 0.384 12.712C2.016 7.432 3.872 3.896 5.952 2.104C7.36 0.887998 9.04 0.279998 10.992 0.279998C12.752 0.279998 14.112 0.855998 15.072 2.008C16.032 3.16 16.672 5.4 16.992 8.728C17.152 10.488 17.376 13.944 17.664 19.096C17.984 24.216 18.208 27.608 18.336 29.272H18.624L25.968 8.872C27.024 5.896 27.92 3.928 28.656 2.968C29.872 1.304 31.52 0.471998 33.6 0.471998ZM35.232 6.52C35.232 6.104 35.104 5.768 34.848 5.512C34.592 5.256 34.24 5.128 33.792 5.128C33.376 5.128 33.008 5.464 32.688 6.136C32.4 6.808 31.744 8.44 30.72 11.032C33.728 9.464 35.232 7.96 35.232 6.52ZM37.5289 1.672C38.2649 0.903997 39.1609 0.519998 40.2169 0.519998C41.2729 0.519998 42.1689 0.903997 42.9049 1.672C43.6729 2.408 44.0569 3.304 44.0569 4.36C44.0569 5.416 43.6729 6.312 42.9049 7.048C42.1689 7.784 41.2729 8.152 40.2169 8.152C39.1609 8.152 38.2649 7.784 37.5289 7.048C36.7929 6.312 36.4249 5.416 36.4249 4.36C36.4249 3.304 36.7929 2.408 37.5289 1.672ZM35.5609 15.736C35.8809 15.16 36.4889 14.728 37.3849 14.44C38.2809 14.12 39.1609 13.96 40.0249 13.96C40.9209 13.96 41.7049 14.072 42.3769 14.296C41.1289 23.928 40.5049 28.792 40.5049 28.888C40.3449 29.528 40.2649 30.072 40.2649 30.52C40.2649 30.936 40.2969 31.304 40.3609 31.624C40.4889 32.456 41.0649 32.872 42.0889 32.872C43.1449 32.872 44.1049 32.2 44.9689 30.856C45.8649 29.48 46.5369 27.928 46.9849 26.2C47.2089 26.328 47.5609 26.712 48.0409 27.352C48.5209 27.992 48.8089 28.472 48.9049 28.792C48.2649 31.352 47.1769 33.416 45.6409 34.984C44.1049 36.552 42.2649 37.336 40.1209 37.336C37.9769 37.336 36.3769 36.808 35.3209 35.752C34.2969 34.696 33.7849 33.336 33.7849 31.672C33.7849 31.32 33.8009 30.952 33.8329 30.568L35.5609 15.736ZM75.8891 8.728C74.6091 8.728 72.8331 8.52 70.5611 8.104C67.3611 10.536 64.4011 11.752 61.6811 11.752C61.5851 11.752 61.4891 11.752 61.3931 11.752C59.4411 11.72 57.9051 11.208 56.7851 10.216C55.6971 9.192 55.1531 7.848 55.1531 6.184C55.1531 4.488 55.6971 3.112 56.7851 2.056C57.9051 0.999998 59.5531 0.471998 61.7291 0.471998C63.1691 0.471998 65.4731 0.951999 68.6411 1.912C71.9691 2.904 74.4491 3.4 76.0811 3.4C78.7691 3.4 80.5451 2.44 81.4091 0.519998L83.2811 1.816C82.5771 6.424 80.1131 8.728 75.8891 8.728ZM59.9051 7.624C59.9051 8.424 60.5931 8.824 61.9691 8.824C63.3451 8.824 65.0251 8.312 67.0091 7.288C64.1931 6.584 62.2571 6.232 61.2011 6.232C60.8491 6.232 60.5451 6.376 60.2891 6.664C60.0331 6.92 59.9051 7.24 59.9051 7.624ZM73.0091 11.176L72.2411 16.312H79.3931C79.6811 16.984 79.8251 17.64 79.8251 18.28C79.8251 18.92 79.5211 19.464 78.9131 19.912C78.3051 20.328 77.5371 20.536 76.6091 20.536H71.5691L71.5211 20.968C75.5531 22.888 77.5691 25.736 77.5691 29.512C77.5691 32.36 76.8171 34.376 75.3131 35.56C73.8091 36.712 72.0331 37.288 69.9851 37.288C67.9371 37.288 66.3531 36.776 65.2331 35.752C64.1131 34.696 63.5531 33.304 63.5531 31.576C63.5531 31.288 63.5851 30.92 63.6491 30.472L64.9451 20.536H60.4331C60.6251 18.712 60.7851 17.304 60.9131 16.312H65.5211L66.0491 12.088C67.7131 11.288 69.1051 10.888 70.2251 10.888C71.3451 10.888 72.2731 10.984 73.0091 11.176ZM71.4731 32.92C72.2411 32.92 72.9131 32.648 73.4891 32.104C74.0651 31.528 74.3531 30.632 74.3531 29.416C74.3531 27.016 73.2651 25.176 71.0891 23.896C70.5771 27.448 70.3051 29.672 70.2731 30.568C70.2731 31.432 70.3851 32.04 70.6091 32.392C70.8651 32.744 71.1531 32.92 71.4731 32.92ZM92.3944 13.912C95.3384 13.912 97.7864 14.856 99.7384 16.744C101.722 18.632 102.714 20.936 102.714 23.656C102.714 27.784 101.498 31.096 99.0664 33.592C96.6664 36.056 93.7544 37.288 90.3304 37.288C86.9064 37.288 84.1864 36.312 82.1704 34.36C80.1864 32.408 79.1944 29.992 79.1944 27.112C79.1944 23.08 80.4264 19.88 82.8904 17.512C85.3864 15.112 88.5544 13.912 92.3944 13.912ZM91.4344 17.8C89.9304 17.8 88.6664 18.664 87.6424 20.392C86.6184 22.12 86.0584 24.296 85.9624 26.92C85.9624 28.776 86.3304 30.312 87.0664 31.528C87.8344 32.744 88.9864 33.352 90.5224 33.352C92.0584 33.352 93.3384 32.504 94.3624 30.808C95.4184 29.112 95.9464 27.176 95.9464 25C95.9464 22.824 95.5784 21.096 94.8424 19.816C94.1064 18.472 92.9704 17.8 91.4344 17.8ZM117.332 13.912C120.276 13.912 122.724 14.856 124.676 16.744C126.66 18.632 127.652 20.936 127.652 23.656C127.652 27.784 126.436 31.096 124.004 33.592C121.604 36.056 118.692 37.288 115.268 37.288C111.844 37.288 109.124 36.312 107.108 34.36C105.124 32.408 104.132 29.992 104.132 27.112C104.132 23.08 105.364 19.88 107.828 17.512C110.324 15.112 113.492 13.912 117.332 13.912ZM116.372 17.8C114.868 17.8 113.604 18.664 112.58 20.392C111.556 22.12 110.996 24.296 110.9 26.92C110.9 28.776 111.268 30.312 112.004 31.528C112.772 32.744 113.924 33.352 115.46 33.352C116.996 33.352 118.276 32.504 119.3 30.808C120.356 29.112 120.884 27.176 120.884 25C120.884 22.824 120.516 21.096 119.78 19.816C119.044 18.472 117.908 17.8 116.372 17.8ZM148.029 2.392C148.253 1.848 148.749 1.4 149.517 1.048C150.317 0.663999 151.261 0.471998 152.349 0.471998C153.469 0.471998 154.301 0.631998 154.845 0.951998C154.525 3.448 154.013 7.368 153.309 12.712C151.837 23.88 151.101 30.04 151.101 31.192C151.101 32.312 151.581 32.872 152.541 32.872C153.373 32.872 154.237 32.36 155.133 31.336C156.029 30.28 156.845 28.568 157.581 26.2C158.477 27.064 159.101 28.008 159.453 29.032C158.301 32.84 156.493 35.304 154.029 36.424C152.909 36.968 151.853 37.24 150.861 37.24C148.013 37.24 146.109 36.216 145.149 34.168C143.485 36.248 141.357 37.288 138.765 37.288C136.173 37.288 133.981 36.408 132.189 34.648C130.429 32.888 129.549 30.568 129.549 27.688C129.549 23.496 130.781 20.152 133.245 17.656C135.709 15.16 138.829 13.912 142.605 13.912C142.701 13.912 142.797 13.912 142.893 13.912C144.205 13.912 145.437 14.104 146.589 14.488L148.029 2.392ZM143.325 17.656C141.277 17.656 139.645 18.44 138.429 20.008C137.245 21.544 136.541 23.848 136.317 26.92C136.285 27.208 136.269 27.48 136.269 27.736C136.269 29.304 136.637 30.552 137.373 31.48C138.141 32.408 139.117 32.872 140.301 32.872C142.317 32.872 143.837 31.448 144.861 28.6L146.109 18.28C145.053 17.864 144.125 17.656 143.325 17.656Z" fill="white"/>
</svg>
