<svg width="50" height="50" viewBox="0 0 50 50" fill="none" xmlns="http://www.w3.org/2000/svg">
<g id="fe:activity">
<g id="feActivity0">
<g id="feActivity1">
<path id="feActivity2" fill-rule="evenodd" clip-rule="evenodd" d="M22.9165 39.583C22.9165 40.1355 22.697 40.6654 22.3063 41.0561C21.9156 41.4468 21.3857 41.6663 20.8332 41.6663C20.2806 41.6663 19.7507 41.4468 19.36 41.0561C18.9693 40.6654 18.7498 40.1355 18.7498 39.583V16.6663C18.7498 16.1138 18.9693 15.5839 19.36 15.1932C19.7507 14.8025 20.2806 14.583 20.8332 14.583C21.3857 14.583 21.9156 14.8025 22.3063 15.1932C22.697 15.5839 22.9165 16.1138 22.9165 16.6663V39.583ZM14.5832 39.583C14.5832 40.1355 14.3637 40.6654 13.973 41.0561C13.5823 41.4468 13.0524 41.6663 12.4998 41.6663C11.9473 41.6663 11.4174 41.4468 11.0267 41.0561C10.636 40.6654 10.4165 40.1355 10.4165 39.583V24.9997C10.4165 24.4471 10.636 23.9172 11.0267 23.5265C11.4174 23.1358 11.9473 22.9163 12.4998 22.9163C13.0524 22.9163 13.5823 23.1358 13.973 23.5265C14.3637 23.9172 14.5832 24.4471 14.5832 24.9997V39.583ZM27.0832 39.583V20.833C27.0832 20.2805 27.3027 19.7506 27.6934 19.3599C28.0841 18.9692 28.614 18.7497 29.1665 18.7497C29.719 18.7497 30.2489 18.9692 30.6396 19.3599C31.0303 19.7506 31.2498 20.2805 31.2498 20.833V39.583C31.2498 40.1355 31.0303 40.6654 30.6396 41.0561C30.2489 41.4468 29.719 41.6663 29.1665 41.6663C28.614 41.6663 28.0841 41.4468 27.6934 41.0561C27.3027 40.6654 27.0832 40.1355 27.0832 39.583ZM35.4165 10.4163C35.4165 9.86381 35.636 9.3339 36.0267 8.9432C36.4174 8.5525 36.9473 8.33301 37.4998 8.33301C38.0524 8.33301 38.5823 8.5525 38.973 8.9432C39.3637 9.3339 39.5832 9.86381 39.5832 10.4163V39.583C39.5832 40.1355 39.3637 40.6654 38.973 41.0561C38.5823 41.4468 38.0524 41.6663 37.4998 41.6663C36.9473 41.6663 36.4174 41.4468 36.0267 41.0561C35.636 40.6654 35.4165 40.1355 35.4165 39.583V10.4163Z" fill="black"/>
</g>
</g>
</g>
</svg>
